# xmcd
#
# Track frame offsets:
#	150
#	23402
#	45477
#	70885
#	96757
#	123467
#	145162
#	166182
#	191597
#	211657
#	237927
#
# Disc length: 3575 seconds
#
# Revision: 0
# Processed by: cddbd v1.5.2PL0 Copyright (c) Steve Scherf et al.
# Submitted via: EZCDAudioConverter 8.0.4.1
#
DISCID=8a0df50b
DTITLE=Steve Lukather - Luke
DYEAR=1997
DGENRE=Blues
TTITLE0=The Real Truth
TTITLE1=Broken Machine
TTITLE2=Tears of My Own Shame
TTITLE3=Love The Things You Hate
TTITLE4=Hate Everything About U
TTITLE5=Reservations to Live (The Way It is)
TTITLE6=Don't Hang Me On
TTITLE7=Always Be There For Me
TTITLE8=Open Your Heart
TTITLE9=Bag O' Tales
TTITLE10=Bluebird
EXTD=
EXTT0=
EXTT1=
EXTT2=
EXTT3=
EXTT4=
EXTT5=
EXTT6=
EXTT7=
EXTT8=
EXTT9=
EXTT10=
PLAYORDER=
